# xmcd
#
# Track frame offsets: 
#        150
#        14860
#        33880
#        53065
#        66012
#        90200
#        110070
#        140572
#        155037
#        179052
#        201842
#        221325
#        245790
#
# Disc length: 3627 seconds
#
# Revision: 5
# Processed by: cddbd v1.5.2PL0 Copyright (c) Steve Scherf et al.
# Submitted via: ExactAudioCopy v1.0b1
#
DISCID=c00e290d
DTITLE=盧冠廷 - 盧冠廷 90演唱會 Disc 2
DYEAR=1991
DGENRE=Pop
TTITLE0=但願人長久
TTITLE1=天變地變情不變
TTITLE2=世事何是絕對
TTITLE3=憑著愛
TTITLE4=最愛是誰
TTITLE5=Right Here Waiting
TTITLE6=漆黑將不再面對
TTITLE7=為自由
TTITLE8=何日何方
TTITLE9=願
TTITLE10=Blowing In The Wind
TTITLE11=He Ain't Heavy, He's My Brother
TTITLE12=陪著你走
EXTD=YEAR: 1991
EXTT0=
EXTT1=
EXTT2=
EXTT3=
EXTT4=
EXTT5=
EXTT6=
EXTT7=
EXTT8=
EXTT9=
EXTT10=
EXTT11=
EXTT12=
PLAYORDER=
